<?xml version="1.0" encoding="UTF-8"?>
<svg width="479px" height="85px" viewBox="0 0 479 85" version="1.1" xmlns="http://www.w3.org/2000/svg" xmlns:xlink="http://www.w3.org/1999/xlink">
    <title>Group 2</title>
    <g id="Page-1" stroke="none" stroke-width="1" fill="none" fill-rule="evenodd">
        <g id="Logo" transform="translate(-50.000000, -45.000000)">
            <g id="Group-2" transform="translate(51.000000, 45.000000)">
                <path d="M146.002,80 L146.002,50.002 L178.756,50.002 L178.756,37.706 L146.002,37.706 L146.002,18.096 L181.936,18.096 L181.936,5.8 L131.162,5.8 L131.162,80 L146.002,80 Z M215.644,81.272 C232.18,81.272 241.614,70.46 241.614,56.362 L241.614,48.518 C241.614,34.42 232.18,23.608 215.644,23.608 C199.108,23.608 189.674,34.42 189.674,48.518 L189.674,56.362 C189.674,70.46 199.108,81.272 215.644,81.272 Z M215.644,69.93 C207.482,69.93 203.666,64.524 203.666,57.316 L203.666,47.564 C203.666,40.356 207.482,34.95 215.644,34.95 C223.806,34.95 227.622,40.356 227.622,47.564 L227.622,57.316 C227.622,64.524 223.806,69.93 215.644,69.93 Z M267.796,80 L267.796,54.56 C267.796,43.43 272.884,38.766 282.318,38.766 L285.286,38.766 L285.286,24.456 L283.59,24.456 C275.322,24.456 268.856,27.318 267.054,35.586 L267.054,24.88 L253.38,24.88 L253.38,80 L267.796,80 Z M309.56,80 L309.56,47.352 C309.56,39.932 313.376,36.116 319.842,36.116 C326.838,36.116 329.7,40.674 329.7,47.034 L329.7,80 L344.116,80 L344.116,47.352 C344.116,39.932 348.038,36.116 354.398,36.116 C361.394,36.116 364.256,40.674 364.256,47.034 L364.256,80 L378.672,80 L378.672,44.702 C378.672,31.452 370.51,23.608 358.956,23.608 C350.9,23.608 344.752,26.258 340.724,31.452 C337.438,26.47 331.926,23.608 324.824,23.608 C316.98,23.608 311.68,26.364 308.924,31.452 L308.924,24.88 L295.144,24.88 L295.144,80 L309.56,80 Z M413.758,81.272 C427.432,81.272 437.608,73.534 437.608,62.828 C437.608,55.09 433.474,50.744 425.312,48.73 L408.564,44.596 C405.702,43.96 404.324,42.688 404.324,39.932 C404.324,36.01 407.504,33.89 413.334,33.89 C419.694,33.89 422.344,36.858 422.344,41.098 L422.344,42.052 L434.958,42.052 L434.958,41.204 C434.958,30.286 426.372,23.608 413.122,23.608 C400.084,23.608 390.862,29.862 390.862,41.204 C390.862,49.578 395.208,53.818 403.476,55.726 L419.8,59.436 C422.98,60.178 424.358,61.768 424.358,64.418 C424.358,68.658 419.906,71.096 413.864,71.096 C407.08,71.096 402.734,68.234 402.734,63.464 L402.734,62.722 L390.014,62.722 L390.014,63.676 C390.014,75.442 399.766,81.272 413.758,81.272 Z M476.722,80 L476.722,68.34 L470.892,68.34 C467.076,68.34 465.698,66.856 465.698,63.252 L465.698,36.54 L477.464,36.54 L477.464,24.88 L465.698,24.88 L465.698,9.828 L451.176,9.828 L451.176,24.88 L443.332,24.88 L443.332,36.54 L451.176,36.54 L451.176,64.312 C451.176,74.064 456.158,80 466.758,80 L476.722,80 Z" id="Formst" fill="#FFFFFF" fill-rule="nonzero"></path>
                <rect id="Rectangle" fill="#413AD4" x="8" y="0" width="85" height="85" rx="4"></rect>
                <g id="Group" transform="translate(17.000000, 11.000000)">
                    <rect id="Rectangle" stroke="#FFFFFF" stroke-width="4" x="2" y="2" width="61" height="17" rx="2"></rect>
                    <rect id="Rectangle-Copy-2" stroke="#FFFFFF" stroke-width="4" x="2" y="30" width="35" height="17" rx="2"></rect>
                    <g id="edit-(3)" transform="translate(43.000000, 27.000000)" fill="#FFFFFF" fill-rule="nonzero">
                        <path d="M20.7059558,14.1072973 C19.9902798,14.1072973 19.4118596,14.6013522 19.4118596,15.212544 L19.4118596,18.6842152 C19.4118596,19.2943406 18.8320866,19.789462 18.1177634,19.789462 L3.8823407,19.789462 C3.16796545,19.789462 2.58824448,19.2942961 2.58824448,18.6842152 L2.58824448,4.31574036 C2.58824448,3.70561498 3.16801748,3.21049357 3.8823407,3.21049357 L11.4011792,3.21049357 C12.1168032,3.21049357 12.6952754,2.71643866 12.6952754,2.10524679 C12.6952754,1.49405491 12.1168032,1 11.4011792,1 L3.8823407,1 C1.7418685,1 0,2.48763053 0,4.31574036 L0,18.6842152 C0,20.512325 1.7418685,22 3.8823407,22 L18.1176593,22 C20.2581315,22 22,20.513436 22,18.6842152 L22,15.2125885 C22,14.6013522 21.4215798,14.1072973 20.7059558,14.1072973 Z" id="Path" stroke="#FFFFFF"></path>
                        <path d="M22.868488,1.20155468 C22.1339537,0.417761343 21.1747514,0.0225874745 20.2085116,0.00101438441 C19.1916676,-0.0227290367 18.1687624,0.370231094 17.3998141,1.1918316 L10.5500596,8.50094211 C9.5504227,9.57195706 9,10.9927425 9,12.5020341 L9,14.9203905 C9,15.5174052 9.45226514,16 10.0117592,16 L12.278129,16 C13.6926068,16 15.0241001,15.412665 16.0287811,14.3449056 L22.8694236,7.04551815 C24.3770147,5.43587046 24.3770147,2.81237435 22.868488,1.20155468 Z M14.5992116,12.8173398 C13.9789844,13.4769902 13.1533707,13.8408245 12.2782104,13.8408245 L11.023559,13.8408245 L11.023559,12.5020775 C11.023559,11.5681841 11.3645274,10.6872033 11.9817038,10.0264678 L16.4972771,5.20807252 L19.1137273,7.99998631 L14.5992116,12.8173398 Z M21.4378201,5.5200793 L20.5443951,6.47341889 L17.9279449,3.6815051 L18.8213292,2.72820891 C19.5437412,1.95735075 20.7174014,1.95952108 21.4377795,2.72820891 C22.1581982,3.4979385 22.1581982,4.7503063 21.4378201,5.5200793 Z" id="Shape"></path>
                    </g>
                    <path d="M54.6760565,20.5127338 C49.341324,20.5127338 45,16.0645351 45,10.5984722 C45,5.13240924 49.341324,0.684210526 54.6760565,0.684210526 C60.010789,0.684210526 64.352113,5.13240924 64.352113,10.5984722 C64.352113,16.0645351 60.010789,20.5127338 54.6760565,20.5127338 Z M54.6760565,5.26002358 C51.8035082,5.26002358 49.4658722,7.65520751 49.4658722,10.5984722 C49.4658722,13.5417368 51.8035082,15.9369207 54.6760565,15.9369207 C57.5486048,15.9369207 59.8862408,13.5417368 59.8862408,10.5984722 C59.8862408,7.65520751 57.5486048,5.26002358 54.6760565,5.26002358 Z" id="Shape" fill="#FFFFFF" fill-rule="nonzero"></path>
                    <rect id="Rectangle" fill="#FFFFFF" x="0" y="56" width="65" height="7" rx="1.7"></rect>
                </g>
                <path d="M96,7 L101,7 L101,7 L101,77 L96,77 C94.8954305,77 94,76.1045695 94,75 L94,9 C94,7.8954305 94.8954305,7 96,7 Z" id="Rectangle-Copy" stroke="#FFFFFF" fill="#413AD4" transform="translate(97.500000, 42.000000) scale(-1, 1) translate(-97.500000, -42.000000) "></path>
                <path d="M2,18 L7,18 L7,18 L7,78 L2,78 C0.8954305,78 1.3527075e-16,77.1045695 0,76 L0,20 C-1.3527075e-16,18.8954305 0.8954305,18 2,18 Z" id="Rectangle-Copy-3" stroke="#FFFFFF" fill="#413AD4"></path>
            </g>
        </g>
    </g>
</svg>